<?xml version="1.0" encoding="utf-8" standalone="no"?>
<!DOCTYPE svg PUBLIC "-//W3C//DTD SVG 1.1//EN"
  "http://www.w3.org/Graphics/SVG/1.1/DTD/svg11.dtd">
<svg xmlns:xlink="http://www.w3.org/1999/xlink" width="440.086pt" height="313.895844pt" viewBox="0 0 440.086 313.895844" xmlns="http://www.w3.org/2000/svg" version="1.1">
 <metadata>
  <rdf:RDF xmlns:dc="http://purl.org/dc/elements/1.1/" xmlns:cc="http://creativecommons.org/ns#" xmlns:rdf="http://www.w3.org/1999/02/22-rdf-syntax-ns#">
   <cc:Work>
    <dc:type rdf:resource="http://purl.org/dc/dcmitype/StillImage"/>
    <dc:date>2023-11-19T21:20:41.819248</dc:date>
    <dc:format>image/svg+xml</dc:format>
    <dc:creator>
     <cc:Agent>
      <dc:title>Matplotlib v3.8.0, https://matplotlib.org/</dc:title>
     </cc:Agent>
    </dc:creator>
   </cc:Work>
  </rdf:RDF>
 </metadata>
 <defs>
  <style type="text/css">*{stroke-linejoin: round; stroke-linecap: butt}</style>
 </defs>
 <g id="figure_1">
  <g id="patch_1">
   <path d="M 0 313.895844 
L 440.086 313.895844 
L 440.086 0 
L 0 0 
z
" style="fill: #ffffff"/>
  </g>
  <g id="axes_1">
   <g id="patch_2">
    <path d="M 31.99 287.136 
L 432.886 287.136 
L 432.886 7.2 
L 31.99 7.2 
z
" style="fill: #ffffff"/>
   </g>
   <g id="matplotlib.axis_1">
    <g id="xtick_1">
     <g id="line2d_1">
      <defs>
       <path id="m790386b06e" d="M 0 0 
L 0 6 
" style="stroke: #262626; stroke-width: 1.25"/>
      </defs>
      <g>
       <use xlink:href="#m790386b06e" x="46.986423" y="287.136" style="fill: #262626; stroke: #262626; stroke-width: 1.25"/>
      </g>
     </g>
     <g id="text_1">
      <!-- 0.0 -->
      <g style="fill: #262626" transform="translate(39.341423 304.509594) scale(0.11 -0.11)">
       <defs>
        <path id="ArialMT-30" d="M 266 2259 
Q 266 3072 433 3567 
Q 600 4063 929 4331 
Q 1259 4600 1759 4600 
Q 2128 4600 2406 4451 
Q 2684 4303 2865 4023 
Q 3047 3744 3150 3342 
Q 3253 2941 3253 2259 
Q 3253 1453 3087 958 
Q 2922 463 2592 192 
Q 2263 -78 1759 -78 
Q 1097 -78 719 397 
Q 266 969 266 2259 
z
M 844 2259 
Q 844 1131 1108 757 
Q 1372 384 1759 384 
Q 2147 384 2411 759 
Q 2675 1134 2675 2259 
Q 2675 3391 2411 3762 
Q 2147 4134 1753 4134 
Q 1366 4134 1134 3806 
Q 844 3388 844 2259 
z
" transform="scale(0.015625)"/>
        <path id="ArialMT-2e" d="M 581 0 
L 581 641 
L 1222 641 
L 1222 0 
L 581 0 
z
" transform="scale(0.015625)"/>
       </defs>
       <use xlink:href="#ArialMT-30"/>
       <use xlink:href="#ArialMT-2e" x="55.615234"/>
       <use xlink:href="#ArialMT-30" x="83.398438"/>
      </g>
     </g>
    </g>
    <g id="xtick_2">
     <g id="line2d_2">
      <g>
       <use xlink:href="#m790386b06e" x="122.251857" y="287.136" style="fill: #262626; stroke: #262626; stroke-width: 1.25"/>
      </g>
     </g>
     <g id="text_2">
      <!-- 0.2 -->
      <g style="fill: #262626" transform="translate(114.606857 304.509594) scale(0.11 -0.11)">
       <defs>
        <path id="ArialMT-32" d="M 3222 541 
L 3222 0 
L 194 0 
Q 188 203 259 391 
Q 375 700 629 1000 
Q 884 1300 1366 1694 
Q 2113 2306 2375 2664 
Q 2638 3022 2638 3341 
Q 2638 3675 2398 3904 
Q 2159 4134 1775 4134 
Q 1369 4134 1125 3890 
Q 881 3647 878 3216 
L 300 3275 
Q 359 3922 746 4261 
Q 1134 4600 1788 4600 
Q 2447 4600 2831 4234 
Q 3216 3869 3216 3328 
Q 3216 3053 3103 2787 
Q 2991 2522 2730 2228 
Q 2469 1934 1863 1422 
Q 1356 997 1212 845 
Q 1069 694 975 541 
L 3222 541 
z
" transform="scale(0.015625)"/>
       </defs>
       <use xlink:href="#ArialMT-30"/>
       <use xlink:href="#ArialMT-2e" x="55.615234"/>
       <use xlink:href="#ArialMT-32" x="83.398438"/>
      </g>
     </g>
    </g>
    <g id="xtick_3">
     <g id="line2d_3">
      <g>
       <use xlink:href="#m790386b06e" x="197.517291" y="287.136" style="fill: #262626; stroke: #262626; stroke-width: 1.25"/>
      </g>
     </g>
     <g id="text_3">
      <!-- 0.4 -->
      <g style="fill: #262626" transform="translate(189.872291 304.509594) scale(0.11 -0.11)">
       <defs>
        <path id="ArialMT-34" d="M 2069 0 
L 2069 1097 
L 81 1097 
L 81 1613 
L 2172 4581 
L 2631 4581 
L 2631 1613 
L 3250 1613 
L 3250 1097 
L 2631 1097 
L 2631 0 
L 2069 0 
z
M 2069 1613 
L 2069 3678 
L 634 1613 
L 2069 1613 
z
" transform="scale(0.015625)"/>
       </defs>
       <use xlink:href="#ArialMT-30"/>
       <use xlink:href="#ArialMT-2e" x="55.615234"/>
       <use xlink:href="#ArialMT-34" x="83.398438"/>
      </g>
     </g>
    </g>
    <g id="xtick_4">
     <g id="line2d_4">
      <g>
       <use xlink:href="#m790386b06e" x="272.782725" y="287.136" style="fill: #262626; stroke: #262626; stroke-width: 1.25"/>
      </g>
     </g>
     <g id="text_4">
      <!-- 0.6 -->
      <g style="fill: #262626" transform="translate(265.137725 304.509594) scale(0.11 -0.11)">
       <defs>
        <path id="ArialMT-36" d="M 3184 3459 
L 2625 3416 
Q 2550 3747 2413 3897 
Q 2184 4138 1850 4138 
Q 1581 4138 1378 3988 
Q 1113 3794 959 3422 
Q 806 3050 800 2363 
Q 1003 2672 1297 2822 
Q 1591 2972 1913 2972 
Q 2475 2972 2870 2558 
Q 3266 2144 3266 1488 
Q 3266 1056 3080 686 
Q 2894 316 2569 119 
Q 2244 -78 1831 -78 
Q 1128 -78 684 439 
Q 241 956 241 2144 
Q 241 3472 731 4075 
Q 1159 4600 1884 4600 
Q 2425 4600 2770 4297 
Q 3116 3994 3184 3459 
z
M 888 1484 
Q 888 1194 1011 928 
Q 1134 663 1356 523 
Q 1578 384 1822 384 
Q 2178 384 2434 671 
Q 2691 959 2691 1453 
Q 2691 1928 2437 2201 
Q 2184 2475 1800 2475 
Q 1419 2475 1153 2201 
Q 888 1928 888 1484 
z
" transform="scale(0.015625)"/>
       </defs>
       <use xlink:href="#ArialMT-30"/>
       <use xlink:href="#ArialMT-2e" x="55.615234"/>
       <use xlink:href="#ArialMT-36" x="83.398438"/>
      </g>
     </g>
    </g>
    <g id="xtick_5">
     <g id="line2d_5">
      <g>
       <use xlink:href="#m790386b06e" x="348.048159" y="287.136" style="fill: #262626; stroke: #262626; stroke-width: 1.25"/>
      </g>
     </g>
     <g id="text_5">
      <!-- 0.8 -->
      <g style="fill: #262626" transform="translate(340.403159 304.509594) scale(0.11 -0.11)">
       <defs>
        <path id="ArialMT-38" d="M 1131 2484 
Q 781 2613 612 2850 
Q 444 3088 444 3419 
Q 444 3919 803 4259 
Q 1163 4600 1759 4600 
Q 2359 4600 2725 4251 
Q 3091 3903 3091 3403 
Q 3091 3084 2923 2848 
Q 2756 2613 2416 2484 
Q 2838 2347 3058 2040 
Q 3278 1734 3278 1309 
Q 3278 722 2862 322 
Q 2447 -78 1769 -78 
Q 1091 -78 675 323 
Q 259 725 259 1325 
Q 259 1772 486 2073 
Q 713 2375 1131 2484 
z
M 1019 3438 
Q 1019 3113 1228 2906 
Q 1438 2700 1772 2700 
Q 2097 2700 2305 2904 
Q 2513 3109 2513 3406 
Q 2513 3716 2298 3927 
Q 2084 4138 1766 4138 
Q 1444 4138 1231 3931 
Q 1019 3725 1019 3438 
z
M 838 1322 
Q 838 1081 952 856 
Q 1066 631 1291 507 
Q 1516 384 1775 384 
Q 2178 384 2440 643 
Q 2703 903 2703 1303 
Q 2703 1709 2433 1975 
Q 2163 2241 1756 2241 
Q 1359 2241 1098 1978 
Q 838 1716 838 1322 
z
" transform="scale(0.015625)"/>
       </defs>
       <use xlink:href="#ArialMT-30"/>
       <use xlink:href="#ArialMT-2e" x="55.615234"/>
       <use xlink:href="#ArialMT-38" x="83.398438"/>
      </g>
     </g>
    </g>
    <g id="xtick_6">
     <g id="line2d_6">
      <g>
       <use xlink:href="#m790386b06e" x="423.313593" y="287.136" style="fill: #262626; stroke: #262626; stroke-width: 1.25"/>
      </g>
     </g>
     <g id="text_6">
      <!-- 1.0 -->
      <g style="fill: #262626" transform="translate(415.668593 304.509594) scale(0.11 -0.11)">
       <defs>
        <path id="ArialMT-31" d="M 2384 0 
L 1822 0 
L 1822 3584 
Q 1619 3391 1289 3197 
Q 959 3003 697 2906 
L 697 3450 
Q 1169 3672 1522 3987 
Q 1875 4303 2022 4600 
L 2384 4600 
L 2384 0 
z
" transform="scale(0.015625)"/>
       </defs>
       <use xlink:href="#ArialMT-31"/>
       <use xlink:href="#ArialMT-2e" x="55.615234"/>
       <use xlink:href="#ArialMT-30" x="83.398438"/>
      </g>
     </g>
    </g>
   </g>
   <g id="matplotlib.axis_2">
    <g id="ytick_1">
     <g id="line2d_7">
      <defs>
       <path id="m3716271d5a" d="M 0 0 
L -6 0 
" style="stroke: #262626; stroke-width: 1.25"/>
      </defs>
      <g>
       <use xlink:href="#m3716271d5a" x="31.99" y="274.581643" style="fill: #262626; stroke: #262626; stroke-width: 1.25"/>
      </g>
     </g>
     <g id="text_7">
      <!-- 0.0 -->
      <g style="fill: #262626" transform="translate(7.2 278.51844) scale(0.11 -0.11)">
       <use xlink:href="#ArialMT-30"/>
       <use xlink:href="#ArialMT-2e" x="55.615234"/>
       <use xlink:href="#ArialMT-30" x="83.398438"/>
      </g>
     </g>
    </g>
    <g id="ytick_2">
     <g id="line2d_8">
      <g>
       <use xlink:href="#m3716271d5a" x="31.99" y="223.507565" style="fill: #262626; stroke: #262626; stroke-width: 1.25"/>
      </g>
     </g>
     <g id="text_8">
      <!-- 0.2 -->
      <g style="fill: #262626" transform="translate(7.2 227.444362) scale(0.11 -0.11)">
       <use xlink:href="#ArialMT-30"/>
       <use xlink:href="#ArialMT-2e" x="55.615234"/>
       <use xlink:href="#ArialMT-32" x="83.398438"/>
      </g>
     </g>
    </g>
    <g id="ytick_3">
     <g id="line2d_9">
      <g>
       <use xlink:href="#m3716271d5a" x="31.99" y="172.433487" style="fill: #262626; stroke: #262626; stroke-width: 1.25"/>
      </g>
     </g>
     <g id="text_9">
      <!-- 0.4 -->
      <g style="fill: #262626" transform="translate(7.2 176.370284) scale(0.11 -0.11)">
       <use xlink:href="#ArialMT-30"/>
       <use xlink:href="#ArialMT-2e" x="55.615234"/>
       <use xlink:href="#ArialMT-34" x="83.398438"/>
      </g>
     </g>
    </g>
    <g id="ytick_4">
     <g id="line2d_10">
      <g>
       <use xlink:href="#m3716271d5a" x="31.99" y="121.359408" style="fill: #262626; stroke: #262626; stroke-width: 1.25"/>
      </g>
     </g>
     <g id="text_10">
      <!-- 0.6 -->
      <g style="fill: #262626" transform="translate(7.2 125.296205) scale(0.11 -0.11)">
       <use xlink:href="#ArialMT-30"/>
       <use xlink:href="#ArialMT-2e" x="55.615234"/>
       <use xlink:href="#ArialMT-36" x="83.398438"/>
      </g>
     </g>
    </g>
    <g id="ytick_5">
     <g id="line2d_11">
      <g>
       <use xlink:href="#m3716271d5a" x="31.99" y="70.28533" style="fill: #262626; stroke: #262626; stroke-width: 1.25"/>
      </g>
     </g>
     <g id="text_11">
      <!-- 0.8 -->
      <g style="fill: #262626" transform="translate(7.2 74.222127) scale(0.11 -0.11)">
       <use xlink:href="#ArialMT-30"/>
       <use xlink:href="#ArialMT-2e" x="55.615234"/>
       <use xlink:href="#ArialMT-38" x="83.398438"/>
      </g>
     </g>
    </g>
    <g id="ytick_6">
     <g id="line2d_12">
      <g>
       <use xlink:href="#m3716271d5a" x="31.99" y="19.211252" style="fill: #262626; stroke: #262626; stroke-width: 1.25"/>
      </g>
     </g>
     <g id="text_12">
      <!-- 1.0 -->
      <g style="fill: #262626" transform="translate(7.2 23.148049) scale(0.11 -0.11)">
       <use xlink:href="#ArialMT-31"/>
       <use xlink:href="#ArialMT-2e" x="55.615234"/>
       <use xlink:href="#ArialMT-30" x="83.398438"/>
      </g>
     </g>
    </g>
   </g>
   <g id="PathCollection_1">
    <defs>
     <path id="m2df031365d" d="M 0 3 
C 0.795609 3 1.55874 2.683901 2.12132 2.12132 
C 2.683901 1.55874 3 0.795609 3 0 
C 3 -0.795609 2.683901 -1.55874 2.12132 -2.12132 
C 1.55874 -2.683901 0.795609 -3 0 -3 
C -0.795609 -3 -1.55874 -2.683901 -2.12132 -2.12132 
C -2.683901 -1.55874 -3 -0.795609 -3 0 
C -3 0.795609 -2.683901 1.55874 -2.12132 2.12132 
C -1.55874 2.683901 -0.795609 3 0 3 
z
" style="stroke: #4c72b0"/>
    </defs>
    <g clip-path="url(#p60bef6c154)">
     <use xlink:href="#m2df031365d" x="384.562658" y="270.310147" style="fill: #4c72b0; stroke: #4c72b0"/>
     <use xlink:href="#m2df031365d" x="279.52406" y="197.947538" style="fill: #4c72b0; stroke: #4c72b0"/>
     <use xlink:href="#m2df031365d" x="296.843444" y="27.049841" style="fill: #4c72b0; stroke: #4c72b0"/>
     <use xlink:href="#m2df031365d" x="110.981746" y="48.56079" style="fill: #4c72b0; stroke: #4c72b0"/>
     <use xlink:href="#m2df031365d" x="78.827364" y="149.932202" style="fill: #4c72b0; stroke: #4c72b0"/>
     <use xlink:href="#m2df031365d" x="273.185641" y="38.810236" style="fill: #4c72b0; stroke: #4c72b0"/>
     <use xlink:href="#m2df031365d" x="366.185148" y="100.46796" style="fill: #4c72b0; stroke: #4c72b0"/>
     <use xlink:href="#m2df031365d" x="357.215719" y="235.99284" style="fill: #4c72b0; stroke: #4c72b0"/>
     <use xlink:href="#m2df031365d" x="208.233101" y="211.85907" style="fill: #4c72b0; stroke: #4c72b0"/>
     <use xlink:href="#m2df031365d" x="208.397572" y="254.609069" style="fill: #4c72b0; stroke: #4c72b0"/>
     <use xlink:href="#m2df031365d" x="166.382508" y="211.688811" style="fill: #4c72b0; stroke: #4c72b0"/>
     <use xlink:href="#m2df031365d" x="228.766817" y="145.05049" style="fill: #4c72b0; stroke: #4c72b0"/>
     <use xlink:href="#m2df031365d" x="115.110853" y="99.179568" style="fill: #4c72b0; stroke: #4c72b0"/>
     <use xlink:href="#m2df031365d" x="352.251224" y="166.237295" style="fill: #4c72b0; stroke: #4c72b0"/>
     <use xlink:href="#m2df031365d" x="85.663851" y="266.416145" style="fill: #4c72b0; stroke: #4c72b0"/>
     <use xlink:href="#m2df031365d" x="260.260886" y="231.51157" style="fill: #4c72b0; stroke: #4c72b0"/>
     <use xlink:href="#m2df031365d" x="199.129482" y="65.361316" style="fill: #4c72b0; stroke: #4c72b0"/>
     <use xlink:href="#m2df031365d" x="204.020757" y="156.687616" style="fill: #4c72b0; stroke: #4c72b0"/>
     <use xlink:href="#m2df031365d" x="176.116606" y="70.401804" style="fill: #4c72b0; stroke: #4c72b0"/>
     <use xlink:href="#m2df031365d" x="286.238317" y="58.446948" style="fill: #4c72b0; stroke: #4c72b0"/>
     <use xlink:href="#m2df031365d" x="303.147559" y="199.146406" style="fill: #4c72b0; stroke: #4c72b0"/>
     <use xlink:href="#m2df031365d" x="113.970625" y="127.893016" style="fill: #4c72b0; stroke: #4c72b0"/>
     <use xlink:href="#m2df031365d" x="310.713497" y="134.917456" style="fill: #4c72b0; stroke: #4c72b0"/>
     <use xlink:href="#m2df031365d" x="383.369416" y="57.196415" style="fill: #4c72b0; stroke: #4c72b0"/>
     <use xlink:href="#m2df031365d" x="338.305866" y="271.639276" style="fill: #4c72b0; stroke: #4c72b0"/>
     <use xlink:href="#m2df031365d" x="117.642796" y="72.260138" style="fill: #4c72b0; stroke: #4c72b0"/>
     <use xlink:href="#m2df031365d" x="280.066617" y="63.982469" style="fill: #4c72b0; stroke: #4c72b0"/>
     <use xlink:href="#m2df031365d" x="146.354017" y="241.639716" style="fill: #4c72b0; stroke: #4c72b0"/>
     <use xlink:href="#m2df031365d" x="227.524665" y="37.189056" style="fill: #4c72b0; stroke: #4c72b0"/>
     <use xlink:href="#m2df031365d" x="350.663972" y="247.675313" style="fill: #4c72b0; stroke: #4c72b0"/>
     <use xlink:href="#m2df031365d" x="337.509479" y="131.112253" style="fill: #4c72b0; stroke: #4c72b0"/>
     <use xlink:href="#m2df031365d" x="189.724372" y="254.128024" style="fill: #4c72b0; stroke: #4c72b0"/>
     <use xlink:href="#m2df031365d" x="358.068219" y="74.486722" style="fill: #4c72b0; stroke: #4c72b0"/>
     <use xlink:href="#m2df031365d" x="114.547733" y="64.527466" style="fill: #4c72b0; stroke: #4c72b0"/>
     <use xlink:href="#m2df031365d" x="197.084422" y="209.34179" style="fill: #4c72b0; stroke: #4c72b0"/>
     <use xlink:href="#m2df031365d" x="63.085107" y="263.541342" style="fill: #4c72b0; stroke: #4c72b0"/>
     <use xlink:href="#m2df031365d" x="174.595817" y="109.900701" style="fill: #4c72b0; stroke: #4c72b0"/>
     <use xlink:href="#m2df031365d" x="269.392683" y="226.883167" style="fill: #4c72b0; stroke: #4c72b0"/>
     <use xlink:href="#m2df031365d" x="408.467083" y="243.841845" style="fill: #4c72b0; stroke: #4c72b0"/>
     <use xlink:href="#m2df031365d" x="119.344886" y="79.51399" style="fill: #4c72b0; stroke: #4c72b0"/>
     <use xlink:href="#m2df031365d" x="378.275568" y="152.171371" style="fill: #4c72b0; stroke: #4c72b0"/>
     <use xlink:href="#m2df031365d" x="155.754591" y="175.943123" style="fill: #4c72b0; stroke: #4c72b0"/>
     <use xlink:href="#m2df031365d" x="108.438655" y="33.393064" style="fill: #4c72b0; stroke: #4c72b0"/>
     <use xlink:href="#m2df031365d" x="414.398647" y="23.339083" style="fill: #4c72b0; stroke: #4c72b0"/>
     <use xlink:href="#m2df031365d" x="154.374418" y="161.697764" style="fill: #4c72b0; stroke: #4c72b0"/>
     <use xlink:href="#m2df031365d" x="195.335117" y="76.897571" style="fill: #4c72b0; stroke: #4c72b0"/>
     <use xlink:href="#m2df031365d" x="199.684843" y="202.615271" style="fill: #4c72b0; stroke: #4c72b0"/>
     <use xlink:href="#m2df031365d" x="276.994882" y="228.894094" style="fill: #4c72b0; stroke: #4c72b0"/>
     <use xlink:href="#m2df031365d" x="225.117577" y="110.778249" style="fill: #4c72b0; stroke: #4c72b0"/>
     <use xlink:href="#m2df031365d" x="162.81829" y="248.927369" style="fill: #4c72b0; stroke: #4c72b0"/>
     <use xlink:href="#m2df031365d" x="414.663455" y="238.181006" style="fill: #4c72b0; stroke: #4c72b0"/>
     <use xlink:href="#m2df031365d" x="401.985009" y="63.409941" style="fill: #4c72b0; stroke: #4c72b0"/>
     <use xlink:href="#m2df031365d" x="50.212545" y="176.337361" style="fill: #4c72b0; stroke: #4c72b0"/>
     <use xlink:href="#m2df031365d" x="95.587417" y="149.988959" style="fill: #4c72b0; stroke: #4c72b0"/>
     <use xlink:href="#m2df031365d" x="185.62276" y="106.475905" style="fill: #4c72b0; stroke: #4c72b0"/>
     <use xlink:href="#m2df031365d" x="57.685891" y="19.924364" style="fill: #4c72b0; stroke: #4c72b0"/>
     <use xlink:href="#m2df031365d" x="387.094988" y="70.703586" style="fill: #4c72b0; stroke: #4c72b0"/>
     <use xlink:href="#m2df031365d" x="108.016682" y="258.783747" style="fill: #4c72b0; stroke: #4c72b0"/>
     <use xlink:href="#m2df031365d" x="328.759166" y="84.172047" style="fill: #4c72b0; stroke: #4c72b0"/>
     <use xlink:href="#m2df031365d" x="104.520837" y="173.879033" style="fill: #4c72b0; stroke: #4c72b0"/>
     <use xlink:href="#m2df031365d" x="84.480604" y="111.015845" style="fill: #4c72b0; stroke: #4c72b0"/>
     <use xlink:href="#m2df031365d" x="110.56085" y="159.943587" style="fill: #4c72b0; stroke: #4c72b0"/>
     <use xlink:href="#m2df031365d" x="225.695334" y="124.27792" style="fill: #4c72b0; stroke: #4c72b0"/>
     <use xlink:href="#m2df031365d" x="139.800736" y="118.324333" style="fill: #4c72b0; stroke: #4c72b0"/>
     <use xlink:href="#m2df031365d" x="51.583534" y="132.260906" style="fill: #4c72b0; stroke: #4c72b0"/>
     <use xlink:href="#m2df031365d" x="129.519816" y="217.08805" style="fill: #4c72b0; stroke: #4c72b0"/>
     <use xlink:href="#m2df031365d" x="150.83123" y="234.379601" style="fill: #4c72b0; stroke: #4c72b0"/>
     <use xlink:href="#m2df031365d" x="374.667661" y="56.842501" style="fill: #4c72b0; stroke: #4c72b0"/>
     <use xlink:href="#m2df031365d" x="80.67297" y="146.411411" style="fill: #4c72b0; stroke: #4c72b0"/>
     <use xlink:href="#m2df031365d" x="158.394167" y="50.986713" style="fill: #4c72b0; stroke: #4c72b0"/>
     <use xlink:href="#m2df031365d" x="278.772682" y="72.611652" style="fill: #4c72b0; stroke: #4c72b0"/>
     <use xlink:href="#m2df031365d" x="320.740205" y="70.224686" style="fill: #4c72b0; stroke: #4c72b0"/>
     <use xlink:href="#m2df031365d" x="316.206963" y="123.969764" style="fill: #4c72b0; stroke: #4c72b0"/>
     <use xlink:href="#m2df031365d" x="160.749125" y="131.810818" style="fill: #4c72b0; stroke: #4c72b0"/>
     <use xlink:href="#m2df031365d" x="254.832131" y="274.411636" style="fill: #4c72b0; stroke: #4c72b0"/>
     <use xlink:href="#m2df031365d" x="240.912607" y="69.872309" style="fill: #4c72b0; stroke: #4c72b0"/>
     <use xlink:href="#m2df031365d" x="103.325055" y="30.746318" style="fill: #4c72b0; stroke: #4c72b0"/>
     <use xlink:href="#m2df031365d" x="96.055911" y="206.905344" style="fill: #4c72b0; stroke: #4c72b0"/>
     <use xlink:href="#m2df031365d" x="370.721611" y="257.732061" style="fill: #4c72b0; stroke: #4c72b0"/>
     <use xlink:href="#m2df031365d" x="307.899492" y="197.573833" style="fill: #4c72b0; stroke: #4c72b0"/>
     <use xlink:href="#m2df031365d" x="217.002294" y="123.893729" style="fill: #4c72b0; stroke: #4c72b0"/>
     <use xlink:href="#m2df031365d" x="387.312143" y="34.080924" style="fill: #4c72b0; stroke: #4c72b0"/>
     <use xlink:href="#m2df031365d" x="254.359361" y="192.639282" style="fill: #4c72b0; stroke: #4c72b0"/>
     <use xlink:href="#m2df031365d" x="182.221247" y="176.824399" style="fill: #4c72b0; stroke: #4c72b0"/>
     <use xlink:href="#m2df031365d" x="263.764894" y="92.712406" style="fill: #4c72b0; stroke: #4c72b0"/>
     <use xlink:href="#m2df031365d" x="167.931675" y="253.862288" style="fill: #4c72b0; stroke: #4c72b0"/>
     <use xlink:href="#m2df031365d" x="297.756597" y="126.790268" style="fill: #4c72b0; stroke: #4c72b0"/>
     <use xlink:href="#m2df031365d" x="202.303501" y="113.070645" style="fill: #4c72b0; stroke: #4c72b0"/>
     <use xlink:href="#m2df031365d" x="304.592709" y="92.747196" style="fill: #4c72b0; stroke: #4c72b0"/>
     <use xlink:href="#m2df031365d" x="267.76229" y="201.834118" style="fill: #4c72b0; stroke: #4c72b0"/>
     <use xlink:href="#m2df031365d" x="267.713452" y="108.263722" style="fill: #4c72b0; stroke: #4c72b0"/>
     <use xlink:href="#m2df031365d" x="172.784476" y="69.623035" style="fill: #4c72b0; stroke: #4c72b0"/>
     <use xlink:href="#m2df031365d" x="166.364811" y="31.393481" style="fill: #4c72b0; stroke: #4c72b0"/>
     <use xlink:href="#m2df031365d" x="211.645876" y="233.93734" style="fill: #4c72b0; stroke: #4c72b0"/>
     <use xlink:href="#m2df031365d" x="148.323123" y="252.125219" style="fill: #4c72b0; stroke: #4c72b0"/>
     <use xlink:href="#m2df031365d" x="95.969569" y="93.399212" style="fill: #4c72b0; stroke: #4c72b0"/>
     <use xlink:href="#m2df031365d" x="159.904628" y="44.531451" style="fill: #4c72b0; stroke: #4c72b0"/>
     <use xlink:href="#m2df031365d" x="370.935847" y="249.25205" style="fill: #4c72b0; stroke: #4c72b0"/>
     <use xlink:href="#m2df031365d" x="144.861631" y="165.400213" style="fill: #4c72b0; stroke: #4c72b0"/>
     <use xlink:href="#m2df031365d" x="182.94612" y="188.032113" style="fill: #4c72b0; stroke: #4c72b0"/>
    </g>
   </g>
   <g id="patch_3">
    <path d="M 31.99 287.136 
L 31.99 7.2 
" style="fill: none; stroke: #262626; stroke-width: 1.25; stroke-linejoin: miter; stroke-linecap: square"/>
   </g>
   <g id="patch_4">
    <path d="M 432.886 287.136 
L 432.886 7.2 
" style="fill: none; stroke: #262626; stroke-width: 1.25; stroke-linejoin: miter; stroke-linecap: square"/>
   </g>
   <g id="patch_5">
    <path d="M 31.99 287.136 
L 432.886 287.136 
" style="fill: none; stroke: #262626; stroke-width: 1.25; stroke-linejoin: miter; stroke-linecap: square"/>
   </g>
   <g id="patch_6">
    <path d="M 31.99 7.2 
L 432.886 7.2 
" style="fill: none; stroke: #262626; stroke-width: 1.25; stroke-linejoin: miter; stroke-linecap: square"/>
   </g>
  </g>
 </g>
 <defs>
  <clipPath id="p60bef6c154">
   <rect x="31.99" y="7.2" width="400.896" height="279.936"/>
  </clipPath>
 </defs>
</svg>
